<?xml version="1.0" encoding="utf-8"?>
<!-- Generator: Adobe Illustrator 27.9.3, SVG Export Plug-In . SVG Version: 9.03 Build 53313)  -->
<svg version="1.1" id="Layer_2_00000030470845242770567860000018217986412838835381_"
	 xmlns="http://www.w3.org/2000/svg" xmlns:xlink="http://www.w3.org/1999/xlink" x="0px" y="0px" viewBox="0 0 32 32"
	 style="enable-background:new 0 0 32 32;" xml:space="preserve">
<path fill="#e6ecef" d="M28,5.8c-1.2-0.2-3.4-0.4-6.1,0.1c-2.6,0.4-4.7,2-5.9,2.6c-1.3-0.6-3.4-2.2-5.9-2.6C7.4,5.5,5.2,5.7,4,5.8
	C3.4,5.9,2.9,6.6,2.9,7.4v14.7c0,0.9,0.7,1.6,1.4,1.5c1.4-0.2,3.5-0.4,5.8,0.2c2.1,0.5,4.1,1.9,5.5,2.5c0,0,0.1,0,0.1,0
	c0,0,0.1,0,0.1,0c0.1,0,0.1,0,0.2,0c0.1,0,0.1,0,0.2,0c0,0,0.1,0,0.1,0c0,0,0.1,0,0.1,0c1.4-0.6,3.4-2,5.5-2.5
	c2.2-0.5,4.4-0.4,5.8-0.2c0.8,0.1,1.4-0.6,1.4-1.5V7.4C29.1,6.6,28.6,5.9,28,5.8z M16.2,23.2c0,0.1-0.1,0.2-0.2,0.2
	s-0.2-0.1-0.2-0.2V10.3c0-0.1,0.1-0.2,0.2-0.2s0.2,0.1,0.2,0.2V23.2z"/>
</svg>
