<?xml version="1.0" encoding="utf-8"?>
<!-- Generator: Adobe Illustrator 27.9.3, SVG Export Plug-In . SVG Version: 9.03 Build 53313)  -->
<svg version="1.1" id="Layer_1" xmlns="http://www.w3.org/2000/svg" xmlns:xlink="http://www.w3.org/1999/xlink" x="0px" y="0px"
	 viewBox="0 0 32 32" style="enable-background:new 0 0 32 32;" xml:space="preserve">
<g>
	<path fill="#667f8a" d="M24.86,3.97h-2.68V2.03h-2.42v1.94h-7.52V2.03H9.82v1.94H7.14C5.13,3.97,3.5,5.6,3.5,7.61v5.38v13.35
		c0,2.01,1.63,3.64,3.64,3.64h17.72c2.01,0,3.64-1.63,3.64-3.64V12.99V7.61C28.5,5.6,26.87,3.97,24.86,3.97z M27.5,26.33
		c0,1.46-1.18,2.64-2.64,2.64H7.14c-1.46,0-2.64-1.18-2.64-2.64V13.99h23V26.33z"/>
	<g>
		<rect fill="#667f8a" x="6.71" y="15.25" width="2.62" height="2.62"/>
		<rect fill="#667f8a" x="12.03" y="15.25" width="2.62" height="2.62"/>
		<rect fill="#667f8a" x="17.35" y="15.25" width="2.62" height="2.62"/>
		<rect fill="#667f8a" x="22.66" y="15.25" width="2.62" height="2.62"/>
	</g>
	<g>
		<rect fill="#667f8a" x="6.71" y="19.54" width="2.62" height="2.62"/>
		<rect fill="#667f8a" x="12.03" y="19.54" width="2.62" height="2.62"/>
		<rect fill="#667f8a" x="17.35" y="19.54" width="2.62" height="2.62"/>
		<rect fill="#667f8a" x="22.66" y="19.54" width="2.62" height="2.62"/>
	</g>
	<g>
		<rect fill="#667f8a" x="6.71" y="23.83" width="2.62" height="2.62"/>
		<rect fill="#667f8a" x="12.03" y="23.83" width="2.62" height="2.62"/>
		<rect fill="#667f8a" x="17.35" y="23.83" width="2.62" height="2.62"/>
		<rect fill="#667f8a" x="22.66" y="23.83" width="2.62" height="2.62"/>
	</g>
</g>
</svg>
