<?xml version="1.0" encoding="UTF-8"?>
<svg id="Layer_2" data-name="Layer 2" xmlns="http://www.w3.org/2000/svg" viewBox="0 0 464.32 54.95">
  <defs>
    <style>
      .cls-1 {
        fill: #386a81;
      }

      .cls-1, .cls-2, .cls-3 {
        stroke-width: 0px;
      }

      .cls-4 {
        isolation: isolate;
      }

      .cls-2 {
        fill: #fff;
      }

      .cls-3 {
        fill: #7ea3b5;
      }
    </style>
  </defs>
  <g id="Layer_1-2" data-name="Layer 1">
    <g>
      <circle class="cls-2" cx="27.48" cy="27.48" r="27.48"/>
      <g id="NICHIJOURNAL-2">
        <g>
          <g class="cls-4">
            <g class="cls-4">
              <path class="cls-2" d="m99.37,46.09h-9.16l-15.32-23.2v23.2h-9.16V8.48h9.16l15.32,23.31V8.48h9.16v37.61Z"/>
              <path class="cls-2" d="m115.17,8.48v37.61h-9.16V8.48h9.16Z"/>
              <path class="cls-2" d="m122.67,17.29c1.61-2.91,3.85-5.18,6.72-6.8,2.88-1.62,6.13-2.44,9.78-2.44,4.46,0,8.29,1.18,11.46,3.54,3.18,2.36,5.3,5.57,6.38,9.64h-10.07c-.75-1.57-1.81-2.77-3.19-3.59-1.38-.82-2.94-1.23-4.69-1.23-2.82,0-5.11.98-6.86,2.95-1.75,1.96-2.62,4.59-2.62,7.88s.88,5.91,2.62,7.88c1.75,1.96,4.04,2.95,6.86,2.95,1.75,0,3.31-.41,4.69-1.23,1.37-.82,2.44-2.02,3.19-3.59h10.07c-1.07,4.07-3.2,7.28-6.38,9.62-3.18,2.34-7,3.51-11.46,3.51-3.64,0-6.9-.81-9.78-2.44-2.88-1.62-5.12-3.88-6.72-6.78s-2.41-6.2-2.41-9.91.8-7.03,2.41-9.94Z"/>
              <path class="cls-2" d="m195.21,8.48v37.61h-9.16v-15.48h-14.25v15.48h-9.16V8.48h9.16v14.73h14.25v-14.73h9.16Z"/>
              <path class="cls-2" d="m210.96,8.48v37.61h-9.16V8.48h9.16Z"/>
              <path class="cls-2" d="m241.18,8.48v25.61c0,3.96-1.12,7.02-3.35,9.16-2.23,2.14-5.24,3.21-9.03,3.21s-7.14-1.12-9.54-3.38c-2.39-2.25-3.59-5.45-3.59-9.59h9.11c0,1.57.32,2.76.96,3.56s1.57,1.21,2.79,1.21c1.11,0,1.96-.36,2.57-1.07.61-.71.91-1.75.91-3.11V8.48h9.16Z"/>
              <path class="cls-2" d="m256.63,44c-2.95-1.64-5.29-3.94-7.02-6.88-1.73-2.95-2.6-6.26-2.6-9.94s.87-6.98,2.6-9.91c1.73-2.93,4.07-5.21,7.02-6.86,2.95-1.64,6.19-2.46,9.72-2.46s6.78.82,9.72,2.46c2.95,1.64,5.27,3.93,6.96,6.86,1.7,2.93,2.54,6.23,2.54,9.91s-.86,6.99-2.57,9.94c-1.71,2.95-4.04,5.24-6.96,6.88-2.93,1.64-6.16,2.46-9.7,2.46s-6.78-.82-9.72-2.46Zm16.93-8.89c1.8-2,2.71-4.64,2.71-7.93s-.9-5.97-2.71-7.96c-1.8-1.98-4.21-2.97-7.21-2.97s-5.46.98-7.26,2.95c-1.8,1.96-2.71,4.63-2.71,7.98s.9,5.97,2.71,7.96c1.8,1.98,4.22,2.97,7.26,2.97s5.4-1,7.21-3Z"/>
              <path class="cls-2" d="m299.68,8.48v22.5c0,2.25.55,3.98,1.66,5.2,1.11,1.21,2.73,1.82,4.88,1.82s3.79-.61,4.93-1.82c1.14-1.21,1.71-2.95,1.71-5.2V8.48h9.16v22.45c0,3.36-.71,6.2-2.14,8.52-1.43,2.32-3.35,4.07-5.76,5.25-2.41,1.18-5.1,1.77-8.06,1.77s-5.62-.58-7.96-1.74c-2.34-1.16-4.19-2.91-5.54-5.25-1.36-2.34-2.04-5.19-2.04-8.55V8.48h9.16Z"/>
            </g>
          </g>
          <g class="cls-4">
            <g class="cls-4">
              <path class="cls-3" d="m347.63,46.09l-7.82-14.2h-2.2v14.2h-9.16V8.48h15.38c2.96,0,5.49.52,7.58,1.55,2.09,1.04,3.65,2.46,4.69,4.26,1.04,1.8,1.55,3.81,1.55,6.03,0,2.5-.71,4.73-2.12,6.7-1.41,1.96-3.49,3.36-6.24,4.18l8.68,14.89h-10.34Zm-10.02-20.68h5.68c1.68,0,2.94-.41,3.78-1.23.84-.82,1.26-1.98,1.26-3.48s-.42-2.55-1.26-3.38c-.84-.82-2.1-1.23-3.78-1.23h-5.68v9.32Z"/>
              <path class="cls-3" d="m397.03,46.09h-9.16l-15.32-23.2v23.2h-9.16V8.48h9.16l15.32,23.31V8.48h9.16v37.61Z"/>
              <path class="cls-3" d="m427.08,39.44h-14.04l-2.25,6.64h-9.59l13.61-37.61h10.61l13.61,37.61h-9.7l-2.25-6.64Zm-2.36-7.07l-4.66-13.77-4.61,13.77h9.27Z"/>
              <path class="cls-3" d="m452.32,39.02h12v7.07h-21.16V8.48h9.16v30.54Z"/>
            </g>
          </g>
        </g>
      </g>
      <g>
        <path class="cls-1" d="m26.49,5.72c5.87,1.07,26.26,7.9,23.44,31.93-.02.2-.11.39-.25.53-1.19,1.27-7.14,7.6-10.21,10.86-.59.62-1.64.19-1.6-.67,1.01-21.67-20.97-29.19-27.92-31.02-.78-.2-.94-1.23-.27-1.67l14.65-9.68c.74-.49,1.29-.44,2.17-.28h0Z"/>
        <path class="cls-3" d="m13.08,18.3l-7.63,8.77c-.48.55-.09,1.4.64,1.4,6.42-.1,26.93,1.04,31.78,19.41.56-18.66-16.04-26.66-24.79-29.57h0Z"/>
        <path class="cls-1" d="m37.87,47.84c-.35-1.33-.79-2.56-1.29-3.72-3.8-6.02-9.79-9.07-17.85-9.07-4.09,0-7.94.76-10.74,1.32-.93.18-1.72.34-2.39.44-.02,0-.03,0-.04-.03-.02-.03,0-.05,0-.06l.02-.02.02-.02,4.51-8.09c-.3-.02-.6-.04-.88-.05l-4.31,7.76c-.38.57.05,1.3.69,1.3.05,0,.09,0,.13,0,2.72-.42,7.67-1.75,13-1.75,7.16,0,15.02,2.39,19.14,12.55,0-.18,0-.35,0-.53h0Z"/>
      </g>
    </g>
  </g>
</svg>