<?xml version="1.0" encoding="UTF-8"?>
<svg id="Layer_2" data-name="Layer 2" xmlns="http://www.w3.org/2000/svg" viewBox="0 0 438.69 72.92">
  <defs>
    <style>
      .cls-1, .cls-2 {
        font-family: Poppins-Bold, Poppins;
        font-size: 50px;
        font-weight: 700;
        isolation: isolate;
      }

      .cls-1, .cls-3 {
        fill: #fff;
      }

      .cls-2, .cls-4 {
        fill: #7ea3b5;
      }

      .cls-3, .cls-4 {
        stroke-width: 0px;
      }
    </style>
  </defs>
  <g id="Layer_1-2" data-name="Layer 1">
    <g>
      <path class="cls-3" d="m27.71,1.38c7.49,1.36,33.49,10.08,29.89,40.72-.03.26-.14.5-.32.68-1.52,1.62-9.11,9.69-13.02,13.85-.75.79-2.09.24-2.04-.85C43.51,28.15,15.48,18.56,6.61,16.22c-.99-.26-1.2-1.57-.34-2.13L24.94,1.74c.95-.62,1.65-.56,2.77-.36Z"/>
      <g id="NICHIJOURNAL">
        <g>
          <text class="cls-1" transform="translate(62.59 42.63)"><tspan x="0" y="0">NICHIJOU</tspan></text>
          <text class="cls-2" transform="translate(307.79 42.63)"><tspan x="0" y="0">RNAL</tspan></text>
        </g>
      </g>
      <rect class="cls-4" x="65.69" y="49.73" width="372" height="3.83" rx="1.28" ry="1.28"/>
      <path class="cls-4" d="m10.62,17.42L.88,28.61c-.61.7-.11,1.79.82,1.78,8.19-.13,34.34,1.33,40.53,24.75.71-23.8-20.46-34-31.61-37.71Z"/>
      <path class="cls-3" d="m42.23,55.09c-.45-1.69-1.01-3.27-1.65-4.75-4.85-7.68-12.48-11.57-22.76-11.57-5.21,0-10.12.97-13.7,1.68-1.18.23-2.19.43-3.05.56-.02,0-.04-.01-.05-.04-.02-.04,0-.06,0-.08l.02-.03.02-.03,5.75-10.32c-.38-.03-.76-.05-1.12-.07L.18,40.36c-.48.73.06,1.66.88,1.66.06,0,.11,0,.17-.01,3.47-.54,9.78-2.23,16.58-2.23,9.13,0,19.15,3.05,24.41,16,.01-.23,0-.45,0-.68Z"/>
    </g>
  </g>
</svg>