<?xml version="1.0" encoding="utf-8"?>
<!-- Generator: Adobe Illustrator 27.9.3, SVG Export Plug-In . SVG Version: 9.03 Build 53313)  -->
<svg version="1.1" id="Layer_2_00000030470845242770567860000018217986412838835381_"
	 xmlns="http://www.w3.org/2000/svg" xmlns:xlink="http://www.w3.org/1999/xlink" x="0px" y="0px" viewBox="0 0 32 32"
	 style="enable-background:new 0 0 32 32;" xml:space="preserve">
<path fill="#e6ecef" d="M23.9,22.1c-0.2,0-0.4,0.1-0.4,0.3c-0.2,1.3-0.9,2.1-1.8,2.3c-1.1,0.2-2.3-0.2-2.9-1.1c-0.7-1.1-1.8-1.7-3-1.8
	c-0.9-0.1-2.4,0.2-4,1.8c-1.6,1.7-3.3,1.4-4.2,1.1l1.7-1.1l3.1-1.9c0.1,0,0.1-0.1,0.1-0.1l9.6-11.1l0.3-0.3l1.7-2
	c0.4-0.5,0.3-1.2-0.1-1.6L22,4.9c-0.5-0.4-1.2-0.3-1.6,0.1l-1.7,2l-0.3,0.3L8.9,18.4c0,0-0.1,0.1-0.1,0.2l-1.4,3.3l-1,2.3
	c-0.1,0.2,0,0.4,0.1,0.6c0,0.1,0.1,0.1,0.1,0.1c0,0,1.1,0.7,2.5,0.7c1,0,2.2-0.4,3.3-1.5c1.1-1.1,2.2-1.7,3.3-1.6
	c1,0.1,1.8,0.6,2.4,1.5c0.8,1.1,2.3,1.7,3.7,1.4c1.3-0.3,2.2-1.4,2.4-2.9C24.3,22.3,24.1,22.1,23.9,22.1z M21.1,5.2
	c0.1-0.1,0.1-0.1,0.2,0l2.4,2.1c0.1,0.1,0.1,0.1,0,0.2L21.6,10L19,7.7L21.1,5.2z M7.9,22.6l1.4-3.2l1.1,0.9l1.1,0.9l-3,1.9l-1.1,0.7
	L7.9,22.6z"/>
</svg>
