<?xml version="1.0" encoding="utf-8"?>
<!-- Generator: Adobe Illustrator 27.9.3, SVG Export Plug-In . SVG Version: 9.03 Build 53313)  -->
<svg version="1.1" id="Layer_2_00000030470845242770567860000018217986412838835381_"
	 xmlns="http://www.w3.org/2000/svg" xmlns:xlink="http://www.w3.org/1999/xlink" x="0px" y="0px" viewBox="0 0 32 32"
	 style="enable-background:new 0 0 32 32;" xml:space="preserve">
<path fill="#667F8A" d="M26.5,5.9l-2.4-2c-0.6-0.5-1.4-0.4-1.9,0.1l-2.1,2.4l-0.3,0.4L8.2,20.4c0,0-0.1,0.1-0.1,0.2l-1.8,4l-1.2,2.8
	c-0.1,0.3,0,0.6,0.2,0.8c0.2,0.2,0.5,0.2,0.8,0.1l2.6-1.6l3.7-2.3c0.1,0,0.2-0.1,0.2-0.1l11.7-13.6l0.3-0.4l2.1-2.4
	C27.2,7.3,27.1,6.4,26.5,5.9z M8,25.7l-1.2,0.8l0.6-1.3l1.5-3.4l1.1,1l1.1,1L8,25.7z M23.6,9.5l-2.6-2.2l2.1-2.4
	c0-0.1,0.1-0.1,0.2,0l2.4,2c0.1,0,0.1,0.1,0,0.2L23.6,9.5z"/>
</svg>
