<?xml version="1.0" encoding="utf-8"?>
<!-- Generator: Adobe Illustrator 27.9.3, SVG Export Plug-In . SVG Version: 9.03 Build 53313)  -->
<svg version="1.1" id="Layer_2_00000156556351869096107410000012749966872937390730_"
	 xmlns="http://www.w3.org/2000/svg" xmlns:xlink="http://www.w3.org/1999/xlink" x="0px" y="0px" viewBox="0 0 32 32"
	 style="enable-background:new 0 0 32 32;" xml:space="preserve">
<g>
	<g>
		<path fill="#e6ecef" d="M22.4,6.2c-1.9,0-3.5,1.4-4,3.2c1.4,0.8,2.4,2.4,2.4,4.1c0,0.2,0,0.3,0,0.5c0.5,0.2,1,0.3,1.6,0.3c2.2,0,4.1-1.8,4.1-4.1
			C26.4,8,24.6,6.2,22.4,6.2z"/>
	</g>
	<g>
		<path fill="#e6ecef" d="M13.9,17.8c-1-0.5-1.9-1.4-2.3-2.5c-0.1,0-0.2,0-0.4,0H8.1c-3.3,0-6,2.7-6,6v1.2H8C8.8,19.9,11.1,18,13.9,17.8z"/>
	</g>
	<g>
		<path fill="#e6ecef" d="M11.2,14c0-0.2,0-0.3,0-0.5c0-1.8,1-3.3,2.4-4.1c-0.4-1.8-2-3.2-4-3.2c-2.2,0-4.1,1.8-4.1,4.1c0,2.2,1.8,4.1,4.1,4.1
			C10.2,14.3,10.7,14.2,11.2,14z"/>
	</g>
	<g>
		<path fill="#e6ecef" d="M23.9,15.2h-3.1c-0.1,0-0.2,0-0.4,0c-0.4,1.1-1.3,2-2.3,2.5c2.8,0.2,5,2.1,5.8,4.7h5.9v-1.2
			C29.9,17.9,27.2,15.2,23.9,15.2z"/>
	</g>
	<circle fill="#e6ecef" cx="16" cy="13.5" r="4.1"/>
	<path fill="#e6ecef" d="M8.6,25.8v-1.5c0-3.3,2.7-6,6-6h2.9c3.3,0,6,2.7,6,6v1.5H8.6z"/>
</g>
</svg>
